<?xml version="1.0" standalone="no"?><!DOCTYPE svg PUBLIC "-//W3C//DTD SVG 1.1//EN" "http://www.w3.org/Graphics/SVG/1.1/DTD/svg11.dtd"><svg t="1665570493196" class="icon" viewBox="0 0 1024 1024" version="1.1" xmlns="http://www.w3.org/2000/svg" p-id="10892" xmlns:xlink="http://www.w3.org/1999/xlink" width="200" height="200"><path d="M435.2 307.2A128 128 0 1 0 307.2 435.2h128V307.2zM307.2 128A179.2 179.2 0 0 1 486.4 307.2v179.2H307.2a179.2 179.2 0 1 1 0-358.4z m409.6 307.2A128 128 0 1 0 588.8 307.2v128H716.8z m0-307.2a179.2 179.2 0 1 1 0 358.4h-179.2V307.2A179.2 179.2 0 0 1 716.8 128z m-409.6 460.8A128 128 0 1 0 435.2 716.8v-128H307.2z m0-51.2h179.2V716.8A179.2 179.2 0 1 1 307.2 537.6z m374.6816 51.2a25.6 25.6 0 0 1 0-51.2H716.8a179.2 179.2 0 1 1-179.2 179.2v-153.6a25.6 25.6 0 0 1 51.2 0v153.6a128 128 0 1 0 128-128h-34.9184z" fill="#2c2c2c" p-id="10893"></path></svg>