<?xml version="1.0" standalone="no"?><!DOCTYPE svg PUBLIC "-//W3C//DTD SVG 1.1//EN" "http://www.w3.org/Graphics/SVG/1.1/DTD/svg11.dtd"><svg t="1665558767526" class="icon" viewBox="0 0 1024 1024" version="1.1" xmlns="http://www.w3.org/2000/svg" p-id="25791" xmlns:xlink="http://www.w3.org/1999/xlink" width="200" height="200"><path d="M796.4672 514.9696c0-11.8784-9.6256-21.504-21.504-21.504s-21.504 9.6256-21.504 21.504V552.96c0 8.6016 7.168 15.36 15.7696 15.0528 3.9936-0.2048 7.9872-0.3072 12.0832-0.3072 8.2944 0 15.1552-6.8608 15.1552-15.1552v-37.5808zM581.3248 518.7584h-129.024c-23.7568 0-43.008 19.2512-43.008 43.008v150.528c0 11.8784 9.6256 21.504 21.504 21.504s21.504-9.6256 21.504-21.504v-150.528h129.024v45.9776c0 17.7152 20.3776 27.648 34.304 16.7936 0.1024-0.1024 0.3072-0.2048 0.4096-0.3072 5.2224-3.9936 8.2944-10.24 8.2944-16.7936v-45.568c0-23.8592-19.2512-43.1104-43.008-43.1104z" p-id="25792"></path><path d="M815.616 485.5808s0 0.1024 0 0c8.4992 8.3968 22.016 8.3968 30.4128 0s8.3968-22.016 0-30.4128l-303.104-303.104c-16.7936-16.7936-44.032-16.7936-60.8256 0l-303.104 303.104c-8.3968 8.3968-8.3968 22.016 0 30.4128s22.016 8.3968 30.4128 0l303.104-303.104 303.104 303.104zM490.8032 794.624H280.2688V514.9696c0-11.8784-9.6256-21.504-21.504-21.504s-21.504 9.6256-21.504 21.504V794.624c0 23.7568 19.2512 43.008 43.008 43.008h210.5344c11.1616 0 20.3776-8.6016 21.1968-19.7632v-0.4096c0.9216-12.288-8.8064-22.8352-21.1968-22.8352zM792.9856 881.664c-4.608 0-9.216-1.4336-13.2096-4.3008l-68.4032-49.7664-68.4032 49.7664c-7.8848 5.7344-18.5344 5.7344-26.4192 0-7.8848-5.7344-11.1616-15.872-8.192-25.088l26.112-80.4864-68.4032-49.7664c-7.8848-5.7344-11.1616-15.872-8.192-25.088s11.5712-15.5648 21.4016-15.5648h84.5824l26.112-80.4864c2.9696-9.3184 11.5712-15.5648 21.4016-15.5648s18.3296 6.2464 21.4016 15.5648l26.112 80.4864h84.5824c9.728 0 18.3296 6.2464 21.4016 15.5648s-0.3072 19.3536-8.192 25.088l-68.4032 49.7664 26.112 80.4864c2.9696 9.3184-0.3072 19.3536-8.192 25.088-3.9936 2.8672-8.6016 4.3008-13.2096 4.3008z m-81.6128-92.672c3.8912 0 7.68 1.2288 10.9568 3.584l50.2784 36.5568-19.2512-59.1872c-2.4576-7.68 0.2048-16.0768 6.7584-20.8896l50.2784-36.5568h-62.1568c-8.0896 0-15.2576-5.2224-17.7152-12.9024l-19.2512-59.1872-19.2512 59.1872c-2.4576 7.68-9.6256 12.9024-17.7152 12.9024h-62.1568l50.2784 36.5568c6.5536 4.8128 9.3184 13.2096 6.7584 20.8896l-19.2512 59.1872 50.2784-36.5568c3.4816-2.3552 7.2704-3.584 11.1616-3.584z m-3.9936-179.8144z" p-id="25793"></path></svg>