<?xml version="1.0" standalone="no"?><!DOCTYPE svg PUBLIC "-//W3C//DTD SVG 1.1//EN" "http://www.w3.org/Graphics/SVG/1.1/DTD/svg11.dtd"><svg t="1665456570845" class="icon" viewBox="0 0 1024 1024" version="1.1" xmlns="http://www.w3.org/2000/svg" p-id="4158" xmlns:xlink="http://www.w3.org/1999/xlink" width="200" height="200"><path d="M929.792 442.368c0-8.192-8.192-16.384-16.384-16.384-45.056-12.288-81.92-36.864-102.4-77.824-24.576-40.96-28.672-86.016-16.384-131.072 4.096-8.192 0-16.384-8.192-24.576-40.96-36.864-90.112-65.536-139.264-81.92-8.192-4.096-16.384 0-24.576 4.096-32.768 32.768-73.728 53.248-118.784 53.248-45.056 0-86.016-20.48-118.784-53.248C380.928 110.592 372.736 110.592 364.544 114.688c-53.248 16.384-98.304 45.056-139.264 81.92C217.088 200.704 217.088 208.896 217.088 217.088 229.376 262.144 225.28 307.2 204.8 348.16c-24.576 40.96-61.44 69.632-102.4 77.824-8.192 0-16.384 8.192-16.384 16.384-4.096 28.672-8.192 53.248-8.192 81.92s4.096 53.248 8.192 81.92c0 8.192 8.192 16.384 16.384 16.384 45.056 12.288 81.92 36.864 102.4 77.824 24.576 40.96 28.672 86.016 16.384 131.072-4.096 8.192 0 16.384 8.192 24.576 40.96 36.864 90.112 65.536 139.264 81.92 4.096 0 4.096 0 8.192 0 4.096 0 12.288-4.096 16.384-8.192 32.768-32.768 73.728-53.248 118.784-53.248 45.056 0 86.016 20.48 118.784 53.248 4.096 8.192 16.384 8.192 24.576 4.096 53.248-16.384 98.304-45.056 139.264-81.92 8.192-4.096 8.192-16.384 8.192-24.576-12.288-45.056-8.192-90.112 16.384-131.072 24.576-40.96 61.44-69.632 102.4-77.824 8.192 0 16.384-8.192 16.384-16.384 4.096-28.672 8.192-53.248 8.192-81.92C937.984 499.712 933.888 471.04 929.792 442.368zM888.832 585.728c-49.152 16.384-90.112 49.152-118.784 94.208-24.576 45.056-32.768 98.304-20.48 151.552-32.768 24.576-65.536 45.056-102.4 61.44-36.864-36.864-86.016-57.344-139.264-57.344-53.248 0-102.4 20.48-139.264 57.344-36.864-16.384-73.728-36.864-102.4-61.44 12.288-53.248 4.096-106.496-20.48-151.552-24.576-45.056-69.632-77.824-118.784-94.208-4.096-20.48-4.096-40.96-4.096-61.44 0-20.48 0-40.96 4.096-61.44C172.032 450.56 212.992 417.792 241.664 368.64c24.576-45.056 32.768-98.304 20.48-151.552C294.912 192.512 327.68 172.032 364.544 159.744c36.864 36.864 86.016 57.344 139.264 57.344 53.248 0 102.4-20.48 139.264-57.344 36.864 16.384 73.728 36.864 102.4 61.44C737.28 270.336 745.472 323.584 770.048 368.64c24.576 45.056 69.632 77.824 118.784 94.208 4.096 20.48 4.096 40.96 4.096 61.44C892.928 544.768 892.928 565.248 888.832 585.728z" p-id="4159"></path><path d="M507.904 380.928c-77.824 0-143.36 65.536-143.36 147.456 0 81.92 65.536 147.456 143.36 147.456 8.192 0 16.384 0 24.576-4.096 12.288-4.096 20.48-12.288 16.384-24.576 0-4.096-4.096-12.288-8.192-12.288-4.096-4.096-8.192-4.096-16.384-4.096-8.192 0-12.288 0-16.384 0-57.344 0-102.4-45.056-102.4-102.4s45.056-102.4 102.4-102.4 102.4 45.056 102.4 102.4c0 4.096 0 12.288 0 16.384-4.096 12.288 4.096 24.576 16.384 24.576 4.096 0 12.288 0 16.384-4.096 4.096-4.096 8.192-8.192 8.192-12.288 0-8.192 4.096-16.384 4.096-24.576 0-40.96-16.384-73.728-40.96-102.4C581.632 393.216 544.768 380.928 507.904 380.928z" p-id="4160"></path></svg>